<svg fill="none" height="550" viewBox="0 0 550 550" width="550" xmlns="http://www.w3.org/2000/svg" xmlns:xlink="http://www.w3.org/1999/xlink"><mask id="a" fill="#fff"><path clip-rule="evenodd" d="m201.543 279.405c-21.206 2.904-37.543 21.092-37.543 43.095v25c0 24.025 19.476 43.5 43.5 43.5 9.84 0 18.917-3.267 26.205-8.776 6.195 16.798 22.346 28.776 41.295 28.776s35.1-11.978 41.295-28.776c7.288 5.509 16.365 8.776 26.205 8.776 24.025 0 43.5-19.475 43.5-43.5v-25c0-21.683-15.864-39.66-36.619-42.959-14.43 25.923-42.108 43.459-73.881 43.459-31.829 0-59.548-17.598-73.957-43.595z" fill="#fff" fill-rule="evenodd"/></mask><path d="m0 0h550v550h-550z" fill="#000"/><ellipse cx="275.5" cy="202" fill="#fff" rx="84.5" ry="118"/><path clip-rule="evenodd" d="m481.225 240.172c-15.43-18.297-38.523-29.92-64.33-29.92-46.454 0-84.112 37.658-84.112 84.112 0 33.077 19.093 61.695 46.859 75.434-7.51 1.408-15.258 2.145-23.177 2.145-69.004 0-124.943-55.939-124.943-124.943s55.939-124.943 124.943-124.943c66.713 0 121.214 52.286 124.76 118.115z" fill="#fff" fill-rule="evenodd"/><path clip-rule="evenodd" d="m69.0005 240.172c15.4293-18.297 38.5225-29.92 64.3295-29.92 46.454 0 84.112 37.658 84.112 84.112 0 33.077-19.093 61.695-46.859 75.434 7.51 1.408 15.258 2.145 23.177 2.145 69.004 0 124.943-55.939 124.943-124.943s-55.939-124.943-124.943-124.943c-66.713 0-121.2139 52.286-124.7595 118.115z" fill="#fff" fill-rule="evenodd"/><path clip-rule="evenodd" d="m201.543 279.405c-21.206 2.904-37.543 21.092-37.543 43.095v25c0 24.025 19.476 43.5 43.5 43.5 9.84 0 18.917-3.267 26.205-8.776 6.195 16.798 22.346 28.776 41.295 28.776s35.1-11.978 41.295-28.776c7.288 5.509 16.365 8.776 26.205 8.776 24.025 0 43.5-19.475 43.5-43.5v-25c0-21.683-15.864-39.66-36.619-42.959-14.43 25.923-42.108 43.459-73.881 43.459-31.829 0-59.548-17.598-73.957-43.595z" fill="#fff200" fill-rule="evenodd"/><path d="m201.543 279.405 8.746-4.848-3.319-5.989-6.784.929zm32.162 102.819 9.382-3.46-4.662-12.642-10.75 8.125zm82.59 0 6.03-7.977-10.75-8.126-4.662 12.643zm33.086-102.683 1.57-9.876-6.906-1.097-3.401 6.109zm-175.381 42.959c0-16.937 12.578-30.952 28.9-33.188l-2.714-19.815c-26.091 3.573-46.186 25.933-46.186 53.003zm0 25v-25h-20v25zm33.5 33.5c-18.502 0-33.5-14.998-33.5-33.5h-20c0 29.547 23.953 53.5 53.5 53.5zm20.175-6.753c-5.612 4.242-12.586 6.753-20.175 6.753v20c12.091 0 23.271-4.023 32.235-10.798zm47.325 26.753c-14.627 0-27.12-9.241-31.913-22.236l-18.764 6.92c7.597 20.601 27.406 35.316 50.677 35.316zm31.913-22.236c-4.793 12.995-17.286 22.236-31.913 22.236v20c23.271 0 43.08-14.715 50.677-35.316zm35.587 2.236c-7.589 0-14.563-2.511-20.175-6.753l-12.06 15.955c8.965 6.775 20.144 10.798 32.235 10.798zm33.5-33.5c0 18.502-14.998 33.5-33.5 33.5v20c29.547 0 53.5-23.953 53.5-53.5zm0-25v25h20v-25zm-28.188-33.083c15.975 2.539 28.188 16.394 28.188 33.083h20c0-26.677-19.515-48.777-45.049-52.835zm-7.168-14.74c-12.737 22.881-37.144 38.323-65.144 38.323v20c35.547 0 66.495-19.63 82.619-48.595zm-65.144 38.323c-28.049 0-52.493-15.497-65.211-38.443l-17.493 9.696c16.101 29.048 47.095 48.747 82.704 48.747z" fill="#000" mask="url(#a)"/><rect fill="#fff" height="176" rx="84.5" width="169" x="191" y="147"/><g fill="#000"><path d="m32.0711 236.5 26.4289-26.429 26.4289 26.429-26.4289 26.429z" stroke="#fff" stroke-width="10"/><path d="m129.657 253.5 14.843-14.843 14.843 14.843-14.843 14.843z" stroke="#fff" stroke-width="8"/><path d="m221.5 249 13.5 13.5-13.5 13.5-13.5-13.5z"/><path d="m330.5 249 13.5 13.5-13.5 13.5-13.5-13.5z"/><path d="m210.657 423.5 14.843-14.843 14.843 14.843-14.843 14.843z" stroke="#fff" stroke-width="8"/><path d="m308.657 423.5 14.843-14.843 14.843 14.843-14.843 14.843z" stroke="#fff" stroke-width="8"/><path d="m391.657 253.5 14.843-14.843 14.843 14.843-14.843 14.843z" stroke="#fff" stroke-width="8"/><path d="m466.071 236.5 26.429-26.429 26.429 26.429-26.429 26.429z" stroke="#fff" stroke-width="10"/><path d="m249.071 452.5 26.429-26.429 26.429 26.429-26.429 26.429z" stroke="#fff" stroke-width="10"/></g><path d="m276 219v67" stroke="#000" stroke-width="10"/><path d="m250 218.5c0 10.217-8.283 18.5-18.5 18.5s-18.5-8.283-18.5-18.5" stroke="#000" stroke-width="10"/><path d="m339 218.5c0 10.217-8.283 18.5-18.5 18.5s-18.5-8.283-18.5-18.5" stroke="#000" stroke-width="10"/></svg>