<svg width="550" height="550" viewBox="0 0 550 550" fill="none" xmlns="http://www.w3.org/2000/svg">
<rect width="550" height="550" fill="black"/>
<ellipse cx="275.5" cy="202" rx="84.5" ry="118" fill="white"/>
<path fill-rule="evenodd" clip-rule="evenodd" d="M481.225 240.172C465.795 221.875 442.702 210.252 416.895 210.252C370.441 210.252 332.783 247.91 332.783 294.364C332.783 327.441 351.876 356.059 379.642 369.798C372.132 371.206 364.384 371.943 356.465 371.943C287.461 371.943 231.522 316.004 231.522 247C231.522 177.996 287.461 122.057 356.465 122.057C423.178 122.057 477.679 174.343 481.225 240.172Z" fill="white"/>
<path fill-rule="evenodd" clip-rule="evenodd" d="M69.0005 240.172C84.4298 221.875 107.523 210.252 133.33 210.252C179.784 210.252 217.442 247.91 217.442 294.364C217.442 327.441 198.349 356.059 170.583 369.798C178.093 371.206 185.841 371.943 193.76 371.943C262.764 371.943 318.703 316.004 318.703 247C318.703 177.996 262.764 122.057 193.76 122.057C127.047 122.057 72.5461 174.343 69.0005 240.172Z" fill="white"/>
<mask id="path-4-inside-1_1172_147" fill="white">
<path fill-rule="evenodd" clip-rule="evenodd" d="M201.543 279.405C180.337 282.309 164 300.497 164 322.5V347.5C164 371.525 183.476 391 207.5 391C217.34 391 226.417 387.733 233.705 382.224C239.9 399.022 256.051 411 275 411C293.949 411 310.1 399.022 316.295 382.224C323.583 387.733 332.66 391 342.5 391C366.525 391 386 371.525 386 347.5V322.5C386 300.817 370.136 282.84 349.381 279.541C334.951 305.464 307.273 323 275.5 323C243.671 323 215.952 305.402 201.543 279.405Z"/>
</mask>
<path fill-rule="evenodd" clip-rule="evenodd" d="M201.543 279.405C180.337 282.309 164 300.497 164 322.5V347.5C164 371.525 183.476 391 207.5 391C217.34 391 226.417 387.733 233.705 382.224C239.9 399.022 256.051 411 275 411C293.949 411 310.1 399.022 316.295 382.224C323.583 387.733 332.66 391 342.5 391C366.525 391 386 371.525 386 347.5V322.5C386 300.817 370.136 282.84 349.381 279.541C334.951 305.464 307.273 323 275.5 323C243.671 323 215.952 305.402 201.543 279.405Z" fill="#FFF200"/>
<path d="M201.543 279.405L210.289 274.557L206.97 268.568L200.186 269.497L201.543 279.405ZM233.705 382.224L243.087 378.764L238.425 366.122L227.675 374.247L233.705 382.224ZM316.295 382.224L322.325 374.247L311.575 366.121L306.913 378.764L316.295 382.224ZM349.381 279.541L350.951 269.665L344.045 268.568L340.644 274.677L349.381 279.541ZM174 322.5C174 305.563 186.578 291.548 202.9 289.312L200.186 269.497C174.095 273.07 154 295.43 154 322.5H174ZM174 347.5V322.5H154V347.5H174ZM207.5 381C188.998 381 174 366.002 174 347.5H154C154 377.047 177.953 401 207.5 401V381ZM227.675 374.247C222.063 378.489 215.089 381 207.5 381V401C219.591 401 230.771 396.977 239.735 390.202L227.675 374.247ZM275 401C260.373 401 247.88 391.759 243.087 378.764L224.323 385.684C231.92 406.285 251.729 421 275 421V401ZM306.913 378.764C302.12 391.759 289.627 401 275 401V421C298.271 421 318.08 406.285 325.677 385.684L306.913 378.764ZM342.5 381C334.911 381 327.937 378.489 322.325 374.247L310.265 390.202C319.23 396.977 330.409 401 342.5 401V381ZM376 347.5C376 366.002 361.002 381 342.5 381V401C372.047 401 396 377.047 396 347.5H376ZM376 322.5V347.5H396V322.5H376ZM347.812 289.417C363.787 291.956 376 305.811 376 322.5H396C396 295.823 376.485 273.723 350.951 269.665L347.812 289.417ZM340.644 274.677C327.907 297.558 303.5 313 275.5 313V333C311.047 333 341.995 313.37 358.119 284.405L340.644 274.677ZM275.5 313C247.451 313 223.007 297.503 210.289 274.557L192.796 284.253C208.897 313.301 239.891 333 275.5 333V313Z" fill="black" mask="url(#path-4-inside-1_1172_147)"/>
<rect x="191" y="147" width="169" height="176" rx="84.5" fill="white"/>
<path d="M32.0711 236.5L58.5 210.071L84.9289 236.5L58.5 262.929L32.0711 236.5Z" fill="black" stroke="white" stroke-width="10"/>
<path d="M129.657 253.5L144.5 238.657L159.343 253.5L144.5 268.343L129.657 253.5Z" fill="black" stroke="white" stroke-width="8"/>
<path d="M221.5 249L235 262.5L221.5 276L208 262.5L221.5 249Z" fill="black"/>
<path d="M330.5 249L344 262.5L330.5 276L317 262.5L330.5 249Z" fill="black"/>
<path d="M210.657 423.5L225.5 408.657L240.343 423.5L225.5 438.343L210.657 423.5Z" fill="black" stroke="white" stroke-width="8"/>
<path d="M308.657 423.5L323.5 408.657L338.343 423.5L323.5 438.343L308.657 423.5Z" fill="black" stroke="white" stroke-width="8"/>
<path d="M391.657 253.5L406.5 238.657L421.343 253.5L406.5 268.343L391.657 253.5Z" fill="black" stroke="white" stroke-width="8"/>
<path d="M466.071 236.5L492.5 210.071L518.929 236.5L492.5 262.929L466.071 236.5Z" fill="black" stroke="white" stroke-width="10"/>
<path d="M249.071 452.5L275.5 426.071L301.929 452.5L275.5 478.929L249.071 452.5Z" fill="black" stroke="white" stroke-width="10"/>
<path d="M276 219L276 286" stroke="black" stroke-width="10"/>
<path d="M250 218.5C250 228.717 241.717 237 231.5 237C221.283 237 213 228.717 213 218.5" stroke="black" stroke-width="10"/>
<path d="M339 218.5C339 228.717 330.717 237 320.5 237C310.283 237 302 228.717 302 218.5" stroke="black" stroke-width="10"/>
</svg>
