<svg xmlns="http://www.w3.org/2000/svg" viewBox="0 -0.5 32 32" shape-rendering="crispEdges">
<metadata>Made with Pixels to Svg https://codepen.io/shshaw/pen/XbxvNj</metadata>
<path stroke="#d13131" d="M8 2h6M8 3h6M6 4h10M6 5h10M2 8h28M2 9h28M0 10h32M0 11h32M0 12h12M20 12h6M28 12h4M0 13h12M20 13h6M28 13h4M0 14h10M14 14h4M22 14h10M0 15h10M14 15h4M22 15h10M0 16h8M12 16h8M24 16h8M0 17h8M12 17h8M24 17h8M0 18h8M12 18h8M24 18h8M0 19h8M12 19h8M24 19h8M0 20h8M12 20h8M24 20h8M0 21h8M12 21h8M24 21h8M0 22h10M14 22h4M22 22h10M0 23h10M14 23h4M22 23h10M0 24h12M20 24h12M0 25h12M20 25h12M0 26h32M0 27h32M2 28h28M2 29h28" />
</svg>